# xmcd
#
# Track frame offsets: 
#        150
#        14770
#        29082
#        45130
#        60230
#        84310
#        106175
#        121902
#        138720
#        164177
#        184242
#        204267
#
# Disc length: 2992 seconds
#
# Revision: 3
# Processed by: cddbd v1.5.2PL0 Copyright (c) Steve Scherf et al.
# Submitted via: ExactAudioCopy v1.3
#
DISCID=a00bae0c
DTITLE=The Jeff Healey Band - See The Light
DYEAR=1998
DGENRE=Rock
TTITLE0=Confidence Man
TTITLE1=My Little Girl
TTITLE2=River Of No Return
TTITLE3=Don't Let Your Chance Go By
TTITLE4=Angel Eyes
TTITLE5=Nice Problem To Have
TTITLE6=Someday, Someway
TTITLE7=I Need To Be Loved
TTITLE8=Blue Jean Blues
TTITLE9=That's What They Say
TTITLE10=Hideaway
TTITLE11=See The Light
EXTD=
EXTT0=
EXTT1=
EXTT2=
EXTT3=
EXTT4=
EXTT5=
EXTT6=
EXTT7=
EXTT8=
EXTT9=
EXTT10=
EXTT11=
PLAYORDER=
